<?xml version="1.0" encoding="UTF-8"?>
<!DOCTYPE svg PUBLIC "-//W3C//DTD SVG 1.1//EN" "http://www.w3.org/Graphics/SVG/1.1/DTD/svg11.dtd">
<svg xmlns="http://www.w3.org/2000/svg" version="1.1" width="900px" height="900px" style="shape-rendering:geometricPrecision; text-rendering:geometricPrecision; image-rendering:optimizeQuality; fill-rule:evenodd; clip-rule:evenodd" xmlns:xlink="http://www.w3.org/1999/xlink">
<g><path style="opacity:1" fill="#fefefe" d="M -0.5,-0.5 C 139.833,-0.5 280.167,-0.5 420.5,-0.5C 411.013,0.849319 401.347,1.84932 391.5,2.5C 385.223,2.57919 379.223,3.57919 373.5,5.5C 228.93,33.6114 121.096,111.945 50,240.5C 31.7126,275.729 18.5459,312.729 10.5,351.5C 5.25163,368.654 2.25163,386.321 1.5,404.5C 1.04752,409.998 0.380852,415.331 -0.5,420.5C -0.5,280.167 -0.5,139.833 -0.5,-0.5 Z"/></g>
<g><path style="opacity:1" fill="#07d892" d="M 420.5,-0.5 C 439.833,-0.5 459.167,-0.5 478.5,-0.5C 489.294,1.39046 500.294,2.7238 511.5,3.5C 515.919,4.97151 520.586,5.63818 525.5,5.5C 543.961,9.36546 562.294,13.6988 580.5,18.5C 584.502,20.6098 588.835,21.9431 593.5,22.5C 723.455,69.6193 815.289,156.953 869,284.5C 885.993,328.297 896.159,373.63 899.5,420.5C 899.5,438.167 899.5,455.833 899.5,473.5C 888.663,612.361 828.663,724.528 719.5,810C 647.252,862.693 566.585,892.526 477.5,899.5C 458.5,899.5 439.5,899.5 420.5,899.5C 270.226,885.792 153.06,816.458 69,691.5C 28.8932,626.264 5.72653,555.264 -0.5,478.5C -0.5,459.167 -0.5,439.833 -0.5,420.5C 0.380852,415.331 1.04752,409.998 1.5,404.5C 2.55847,403.4 3.3918,402.066 4,400.5C 5.29132,383.967 7.45799,367.633 10.5,351.5C 18.5459,312.729 31.7126,275.729 50,240.5C 121.096,111.945 228.93,33.6114 373.5,5.5C 379.791,5.50455 385.791,4.50455 391.5,2.5C 401.347,1.84932 411.013,0.849319 420.5,-0.5 Z"/></g>
<g><path style="opacity:1" fill="#fefefe" d="M 478.5,-0.5 C 618.833,-0.5 759.167,-0.5 899.5,-0.5C 899.5,139.833 899.5,280.167 899.5,420.5C 896.159,373.63 885.993,328.297 869,284.5C 815.289,156.953 723.455,69.6193 593.5,22.5C 589.498,20.3902 585.165,19.0569 580.5,18.5C 562.294,13.6988 543.961,9.36546 525.5,5.5C 521.081,4.02849 516.414,3.36182 511.5,3.5C 500.294,2.7238 489.294,1.39046 478.5,-0.5 Z"/></g>
<g><path style="opacity:1" fill="#b9f9e3" d="M 391.5,2.5 C 385.791,4.50455 379.791,5.50455 373.5,5.5C 379.223,3.57919 385.223,2.57919 391.5,2.5 Z"/></g>
<g><path style="opacity:1" fill="#b4f7e0" d="M 511.5,3.5 C 516.414,3.36182 521.081,4.02849 525.5,5.5C 520.586,5.63818 515.919,4.97151 511.5,3.5 Z"/></g>
<g><path style="opacity:1" fill="#b8fbe6" d="M 580.5,18.5 C 585.165,19.0569 589.498,20.3902 593.5,22.5C 588.835,21.9431 584.502,20.6098 580.5,18.5 Z"/></g>
<g><path style="opacity:1" fill="#22c091" d="M 479.5,36.5 C 458.167,35.1667 436.833,35.1667 415.5,36.5C 416.609,35.71 417.942,35.21 419.5,35C 429.5,34.8333 439.5,34.6667 449.5,34.5C 459.856,34.5014 469.856,35.1681 479.5,36.5 Z"/></g>
<g><path style="opacity:1" fill="#17b083" d="M 479.5,36.5 C 490.68,35.5754 501.347,36.9087 511.5,40.5C 500.674,39.3386 490.008,38.0053 479.5,36.5 Z"/></g>
<g><path style="opacity:1" fill="#0a5e4a" d="M 394.5,39.5 C 391.026,40.5249 387.36,41.1916 383.5,41.5C 383.918,40.7784 384.584,40.2784 385.5,40C 388.482,39.502 391.482,39.3354 394.5,39.5 Z"/></g>
<g><path style="opacity:1" fill="#161c29" d="M 479.5,36.5 C 490.008,38.0053 500.674,39.3386 511.5,40.5C 520.641,42.5246 529.975,44.1913 539.5,45.5C 542.219,46.913 545.219,47.5797 548.5,47.5C 551.799,49.4835 555.466,50.4835 559.5,50.5C 692.151,90.7502 784.651,175.084 837,303.5C 839.736,313.375 843.07,323.042 847,332.5C 847.363,335.544 847.863,338.544 848.5,341.5C 850.278,348.678 852.278,355.678 854.5,362.5C 855.092,365.127 855.425,367.794 855.5,370.5C 856.81,380.365 858.477,390.032 860.5,399.5C 861.101,410.349 862.101,421.016 863.5,431.5C 863.873,451.216 863.206,470.882 861.5,490.5C 860.111,495.269 859.444,500.269 859.5,505.5C 859.5,505.833 859.5,506.167 859.5,506.5C 857.645,513.277 856.312,520.277 855.5,527.5C 854.725,531.814 854.059,536.147 853.5,540.5C 851.261,546.572 849.594,552.905 848.5,559.5C 847.508,563.404 846.508,567.404 845.5,571.5C 840.732,582.13 836.732,593.13 833.5,604.5C 789.708,706.963 717.041,781.629 615.5,828.5C 613.033,828.755 611.033,829.755 609.5,831.5C 603.279,833.459 597.279,835.792 591.5,838.5C 586.146,839.356 581.146,841.023 576.5,843.5C 560.3,847.967 543.966,851.967 527.5,855.5C 519.966,856.42 512.633,857.754 505.5,859.5C 447.982,867.197 391.315,863.197 335.5,847.5C 333.898,845.926 331.898,845.259 329.5,845.5C 215.408,809.073 131.408,737.406 77.5,630.5C 73.1034,620.04 68.4367,609.707 63.5,599.5C 59.1323,586.066 54.799,572.733 50.5,559.5C 50.4098,555.786 49.4098,552.452 47.5,549.5C 46.1698,542.177 44.8365,534.843 43.5,527.5C 42.9887,521.951 41.9887,516.617 40.5,511.5C 39.5233,508.713 39.19,505.713 39.5,502.5C 39.2296,497.972 38.5629,493.639 37.5,489.5C 37.8128,485.958 37.4794,482.625 36.5,479.5C 35.6142,461.507 35.4475,443.507 36,425.5C 37.3928,411.48 38.8928,397.48 40.5,383.5C 41.2852,381.626 41.9518,379.626 42.5,377.5C 44.1647,369.614 45.8313,361.614 47.5,353.5C 49.9145,344.59 51.9145,335.59 53.5,326.5C 56.6125,319.756 59.2792,312.756 61.5,305.5C 103.694,196.891 177.694,118.391 283.5,70C 298.687,64.064 314.02,58.564 329.5,53.5C 336.424,52.0785 343.09,50.0785 349.5,47.5C 354.536,46.6574 359.536,45.6574 364.5,44.5C 370.598,45.1091 376.265,44.1091 381.5,41.5C 382.167,41.5 382.833,41.5 383.5,41.5C 387.36,41.1916 391.026,40.5249 394.5,39.5C 401.627,38.4348 408.627,37.4348 415.5,36.5C 436.833,35.1667 458.167,35.1667 479.5,36.5 Z"/></g>
<g><path style="opacity:1" fill="#17a67b" d="M 511.5,40.5 C 519.482,41.3953 527.482,42.2286 535.5,43C 536.858,43.9344 538.192,44.7677 539.5,45.5C 529.975,44.1913 520.641,42.5246 511.5,40.5 Z"/></g>
<g><path style="opacity:1" fill="#0a3e36" d="M 381.5,41.5 C 376.265,44.1091 370.598,45.1091 364.5,44.5C 369.855,42.4196 375.522,41.4196 381.5,41.5 Z"/></g>
<g><path style="opacity:1" fill="#218b70" d="M 548.5,47.5 C 552.427,47.9257 556.093,48.9257 559.5,50.5C 555.466,50.4835 551.799,49.4835 548.5,47.5 Z"/></g>
<g><path style="opacity:1" fill="#13765d" d="M 349.5,47.5 C 343.09,50.0785 336.424,52.0785 329.5,53.5C 335.779,50.521 342.446,48.521 349.5,47.5 Z"/></g>
<g><path style="opacity:1" fill="#fdfdfd" d="M 681.5,307.5 C 679.495,313.209 678.495,319.209 678.5,325.5C 696.833,325.5 715.167,325.5 733.5,325.5C 733.168,378.003 733.501,430.336 734.5,482.5C 745.456,492.458 755.79,503.125 765.5,514.5C 755.599,525.239 745.432,535.906 735,546.5C 736.145,585.51 737.978,624.51 740.5,663.5C 740.7,675.505 741.034,687.505 741.5,699.5C 741.5,700.833 741.5,702.167 741.5,703.5C 713.274,704.145 685.274,703.478 657.5,701.5C 655.66,692.471 653.66,683.471 651.5,674.5C 651.706,671.505 651.04,668.838 649.5,666.5C 649.5,666.167 649.5,665.833 649.5,665.5C 664.5,665.5 679.5,665.5 694.5,665.5C 694.833,665.5 695.167,665.5 695.5,665.5C 696.177,621.961 696.844,578.294 697.5,534.5C 703.812,527.854 710.145,521.187 716.5,514.5C 709.479,507.146 702.479,499.813 695.5,492.5C 695.5,449.5 695.5,406.5 695.5,363.5C 685.985,363.173 676.652,363.506 667.5,364.5C 667.167,365.833 666.833,367.167 666.5,368.5C 662.721,376.633 658.054,384.3 652.5,391.5C 644.862,392.497 637.196,392.831 629.5,392.5C 627.268,367.48 616.601,346.98 597.5,331C 590.33,326.415 582.664,322.915 574.5,320.5C 576.291,315.486 577.624,310.486 578.5,305.5C 580.816,301.206 582.15,296.54 582.5,291.5C 582.607,289.621 582.107,289.288 581,290.5C 574.67,300.321 568.17,309.988 561.5,319.5C 549.186,317.979 536.852,316.646 524.5,315.5C 511.831,314.5 499.164,313.5 486.5,312.5C 477.035,311.081 467.368,310.247 457.5,310C 441.661,309.172 425.995,309.339 410.5,310.5C 404.536,311.307 398.536,311.64 392.5,311.5C 387.25,311.302 382.25,311.969 377.5,313.5C 355.051,315.944 333.718,322.111 313.5,332C 298.099,343.063 285.932,356.896 277,373.5C 275.37,379.986 273.87,386.486 272.5,393C 262.506,393.5 252.506,393.666 242.5,393.5C 242.5,384.5 242.5,375.5 242.5,366.5C 243.404,365.791 243.737,364.791 243.5,363.5C 229.5,363.5 215.5,363.5 201.5,363.5C 201.5,406.5 201.5,449.5 201.5,492.5C 194.521,499.813 187.521,507.146 180.5,514.5C 187.242,522.245 194.576,529.245 202.5,535.5C 202.5,578.833 202.5,622.167 202.5,665.5C 214.5,665.5 226.5,665.5 238.5,665.5C 238.5,622.167 238.5,578.833 238.5,535.5C 240.571,532.488 243.238,531.821 246.5,533.5C 247.714,548.636 249.047,563.636 250.5,578.5C 251.167,595.167 251.833,611.833 252.5,628.5C 253.539,653.498 254.539,678.498 255.5,703.5C 227.833,703.5 200.167,703.5 172.5,703.5C 172.817,699.298 172.483,695.298 171.5,691.5C 169.999,661.49 168.333,631.49 166.5,601.5C 166.524,588.311 165.857,575.311 164.5,562.5C 163.673,557.349 163.173,552.016 163,546.5C 152.319,535.986 141.819,525.319 131.5,514.5C 141.724,503.058 152.39,492.058 163.5,481.5C 164.499,429.669 164.832,377.669 164.5,325.5C 194.005,325.831 223.338,325.498 252.5,324.5C 257.208,313.123 264.542,303.789 274.5,296.5C 264.435,289.81 254.435,283.143 244.5,276.5C 259.324,275.504 274.324,275.171 289.5,275.5C 289.737,274.209 289.404,273.209 288.5,272.5C 279.848,247.114 286.848,227.448 309.5,213.5C 309.833,214 310.167,214.5 310.5,215C 304.489,225.055 302.322,235.888 304,247.5C 305.31,252.124 307.644,256.124 311,259.5C 320.163,244.339 332.996,233.506 349.5,227C 385.674,213.977 423.008,208.977 461.5,212C 504.648,217.468 547.648,216.635 590.5,209.5C 593.781,209.58 596.781,208.913 599.5,207.5C 615.306,203.427 629.973,196.927 643.5,188C 646.206,185.629 648.539,182.963 650.5,180C 651.332,179.312 651.998,179.479 652.5,180.5C 658.558,210.529 661.058,240.862 660,271.5C 659.177,278.955 657.344,286.121 654.5,293C 664.462,286.917 674.129,280.083 683.5,272.5C 683.833,274.167 684.167,275.833 684.5,277.5C 683.72,287.533 682.72,297.533 681.5,307.5 Z"/></g>
<g><path style="opacity:1" fill="#8f8f92" d="M 599.5,207.5 C 596.781,208.913 593.781,209.58 590.5,209.5C 593.219,208.087 596.219,207.42 599.5,207.5 Z"/></g>
<g><path style="opacity:1" fill="#979999" d="M 288.5,272.5 C 289.404,273.209 289.737,274.209 289.5,275.5C 274.324,275.171 259.324,275.504 244.5,276.5C 243.624,276.631 242.957,276.298 242.5,275.5C 258.189,275.158 273.522,274.158 288.5,272.5 Z"/></g>
<g><path style="opacity:1" fill="#b5b7bc" d="M 582.5,291.5 C 582.15,296.54 580.816,301.206 578.5,305.5C 579.231,300.562 580.565,295.895 582.5,291.5 Z"/></g>
<g><path style="opacity:1" fill="#a2a5aa" d="M 410.5,310.5 C 425.995,309.339 441.661,309.172 457.5,310C 467.368,310.247 477.035,311.081 486.5,312.5C 461.188,311.101 435.855,310.434 410.5,310.5 Z"/></g>
<g><path style="opacity:1" fill="#7b7e86" d="M 392.5,311.5 C 387.731,312.889 382.731,313.556 377.5,313.5C 382.25,311.969 387.25,311.302 392.5,311.5 Z"/></g>
<g><path style="opacity:1" fill="#bdbfc4" d="M 524.5,315.5 C 536.852,316.646 549.186,317.979 561.5,319.5C 560.207,320.158 558.707,320.492 557,320.5C 545.963,319.234 535.13,317.568 524.5,315.5 Z"/></g>
<g><path style="opacity:1" fill="#17af82" d="M 61.5,305.5 C 59.2792,312.756 56.6125,319.756 53.5,326.5C 54.3402,322.139 55.3402,317.805 56.5,313.5C 58.5382,311.03 60.2048,308.363 61.5,305.5 Z"/></g>
<g><path style="opacity:1" fill="#bcbec1" d="M 681.5,307.5 C 681.16,313.208 680.493,318.875 679.5,324.5C 697.833,324.5 716.167,324.5 734.5,324.5C 734.5,377.167 734.5,429.833 734.5,482.5C 733.501,430.336 733.168,378.003 733.5,325.5C 715.167,325.5 696.833,325.5 678.5,325.5C 678.495,319.209 679.495,313.209 681.5,307.5 Z"/></g>
<g><path style="opacity:1" fill="#c1c3cc" d="M 252.5,324.5 C 223.338,325.498 194.005,325.831 164.5,325.5C 164.832,377.669 164.499,429.669 163.5,481.5C 163.5,429.167 163.5,376.833 163.5,324.5C 193.167,324.5 222.833,324.5 252.5,324.5 Z"/></g>
<g><path style="opacity:1" fill="#13b282" d="M 848.5,341.5 C 850.161,344.711 851.828,348.045 853.5,351.5C 854.489,355.107 854.823,358.774 854.5,362.5C 852.278,355.678 850.278,348.678 848.5,341.5 Z"/></g>
<g><path style="opacity:1" fill="#54daa7" d="M 10.5,351.5 C 7.45799,367.633 5.29132,383.967 4,400.5C 3.3918,402.066 2.55847,403.4 1.5,404.5C 2.25163,386.321 5.25163,368.654 10.5,351.5 Z"/></g>
<g><path style="opacity:1" fill="#072a27" d="M 47.5,353.5 C 45.8313,361.614 44.1647,369.614 42.5,377.5C 42.721,369.075 44.3877,361.075 47.5,353.5 Z"/></g>
<g><path style="opacity:1" fill="#6d7077" d="M 242.5,366.5 C 229.542,364.519 216.209,363.852 202.5,364.5C 202.5,407.167 202.5,449.833 202.5,492.5C 202.167,492.5 201.833,492.5 201.5,492.5C 201.5,449.5 201.5,406.5 201.5,363.5C 215.5,363.5 229.5,363.5 243.5,363.5C 243.737,364.791 243.404,365.791 242.5,366.5 Z"/></g>
<g><path style="opacity:1" fill="#00010d" d="M 242.5,366.5 C 242.5,375.5 242.5,384.5 242.5,393.5C 241.506,384.348 241.173,375.015 241.5,365.5C 228.833,365.5 216.167,365.5 203.5,365.5C 203.832,408.003 203.499,450.337 202.5,492.5C 202.5,449.833 202.5,407.167 202.5,364.5C 216.209,363.852 229.542,364.519 242.5,366.5 Z"/></g>
<g><path style="opacity:1" fill="#010413" d="M 667.5,364.5 C 676.5,364.5 685.5,364.5 694.5,364.5C 694.5,407.167 694.5,449.833 694.5,492.5C 693.501,450.337 693.168,408.003 693.5,365.5C 686.159,365.334 678.826,365.5 671.5,366C 669.807,366.847 668.14,367.68 666.5,368.5C 666.833,367.167 667.167,365.833 667.5,364.5 Z"/></g>
<g><path style="opacity:1" fill="#646772" d="M 667.5,364.5 C 676.652,363.506 685.985,363.173 695.5,363.5C 695.5,406.5 695.5,449.5 695.5,492.5C 695.167,492.5 694.833,492.5 694.5,492.5C 694.5,449.833 694.5,407.167 694.5,364.5C 685.5,364.5 676.5,364.5 667.5,364.5 Z"/></g>
<g><path style="opacity:1" fill="#159771" d="M 855.5,370.5 C 856.776,372.562 857.61,374.896 858,377.5C 859.552,384.758 860.385,392.091 860.5,399.5C 858.477,390.032 856.81,380.365 855.5,370.5 Z"/></g>
<g><path style="opacity:1" fill="#1cc38f" d="M 40.5,383.5 C 38.8928,397.48 37.3928,411.48 36,425.5C 35.4475,443.507 35.6142,461.507 36.5,479.5C 35.168,469.689 34.5013,459.523 34.5,449C 34.2761,435.418 34.9427,421.918 36.5,408.5C 36.6332,404.664 35.9666,400.998 34.5,397.5C 34.6667,396.833 34.8333,396.167 35,395.5C 36,396.833 37,396.833 38,395.5C 38.6067,391.463 38.44,387.463 37.5,383.5C 38.5,383.5 39.5,383.5 40.5,383.5 Z"/></g>
<g><path style="opacity:1" fill="#27a984" d="M 860.5,399.5 C 862.809,409.895 863.809,420.562 863.5,431.5C 862.101,421.016 861.101,410.349 860.5,399.5 Z"/></g>
<g><path style="opacity:1" fill="#fafafa" d="M 426.5,505.5 C 432.762,507.019 439.262,507.686 446,507.5C 450.68,507.499 455.18,507.166 459.5,506.5C 463.833,506.5 468.167,506.5 472.5,506.5C 472.5,504.833 472.5,503.167 472.5,501.5C 478.799,471.021 496.132,449.188 524.5,436C 554.709,424.89 583.376,427.89 610.5,445C 625.974,456.119 636.974,470.619 643.5,488.5C 643.41,491.152 644.076,493.485 645.5,495.5C 646.795,499.267 647.461,503.267 647.5,507.5C 662.348,504.857 667.514,510.857 663,525.5C 662.167,526.333 661.333,527.167 660.5,528C 656.179,528.499 651.846,528.666 647.5,528.5C 644.035,559.132 629.035,582.299 602.5,598C 594.79,601.69 586.79,604.524 578.5,606.5C 565.828,607.782 553.162,607.782 540.5,606.5C 505.437,597.938 482.937,576.271 473,541.5C 472.281,537.855 471.781,534.188 471.5,530.5C 456.491,529.225 441.491,529.225 426.5,530.5C 415.896,577.943 386.396,603.276 338,606.5C 299.901,604.787 272.567,586.787 256,552.5C 253.843,544.559 252.01,536.559 250.5,528.5C 236.571,531.736 231.071,526.403 234,512.5C 234.583,510.998 235.416,509.665 236.5,508.5C 241.1,507.557 245.767,507.223 250.5,507.5C 256.143,473.348 274.809,449.181 306.5,435C 354.732,420.846 391.899,435.013 418,477.5C 422.148,486.443 424.981,495.776 426.5,505.5 Z"/></g>
<g><path style="opacity:1" fill="#161b29" d="M 492.5,524.5 C 492.407,518.137 492.74,511.804 493.5,505.5C 500.458,476.043 518.792,458.209 548.5,452C 583.679,448.838 608.512,463.338 623,495.5C 631.375,529.248 621.542,556.081 593.5,576C 566.455,590.374 540.788,588.374 516.5,570C 503.091,557.682 495.091,542.515 492.5,524.5 Z"/></g>
<g><path style="opacity:1" fill="#161b29" d="M 333.5,450.5 C 371.58,451.774 395.414,470.774 405,507.5C 407.361,536.817 396.528,559.651 372.5,576C 340.366,592.169 311.866,587.335 287,561.5C 270.293,539.426 266.959,515.426 277,489.5C 289.486,467.162 308.319,454.162 333.5,450.5 Z"/></g>
<g><path style="opacity:1" fill="#f3f3f4" d="M 344.5,461.5 C 345.873,461.343 347.207,461.51 348.5,462C 359.64,473.14 370.806,484.306 382,495.5C 382.81,498.887 381.644,501.387 378.5,503C 376.833,503.667 375.167,503.667 373.5,503C 362.667,492.167 351.833,481.333 341,470.5C 340.333,468.833 340.333,467.167 341,465.5C 342.376,464.295 343.542,462.962 344.5,461.5 Z"/></g>
<g><path style="opacity:1" fill="#f2f3f4" d="M 565.5,461.5 C 566.873,461.343 568.207,461.51 569.5,462C 580.569,473.613 591.736,485.113 603,496.5C 602.912,499.642 601.412,502.142 598.5,504C 597.5,504.667 596.5,504.667 595.5,504C 594.449,502.615 593.116,501.615 591.5,501C 582,490.167 571.833,480 561,470.5C 560.333,469.167 560.333,467.833 561,466.5C 562.707,464.963 564.207,463.296 565.5,461.5 Z"/></g>
<g><path style="opacity:1" fill="#f4f4f5" d="M 344.5,481.5 C 345.552,481.351 346.552,481.517 347.5,482C 360,494.5 372.5,507 385,519.5C 386.182,521.344 387.349,523.177 388.5,525C 386.885,529.301 383.885,530.968 379.5,530C 366.333,516.833 353.167,503.667 340,490.5C 339.053,486.279 340.553,483.279 344.5,481.5 Z"/></g>
<g><path style="opacity:1" fill="#f4f5f5" d="M 563.5,482.5 C 565.527,482.338 567.527,482.505 569.5,483C 582.667,496.167 595.833,509.333 609,522.5C 609.668,528.829 606.834,531.329 600.5,530C 587.333,516.833 574.167,503.667 561,490.5C 560.833,489.667 560.667,488.833 560.5,488C 561.562,486.159 562.562,484.326 563.5,482.5 Z"/></g>
<g><path style="opacity:1" fill="#96989e" d="M 643.5,488.5 C 644.924,490.515 645.59,492.848 645.5,495.5C 644.076,493.485 643.41,491.152 643.5,488.5 Z"/></g>
<g><path style="opacity:1" fill="#fefefe" d="M 899.5,473.5 C 899.5,615.5 899.5,757.5 899.5,899.5C 758.833,899.5 618.167,899.5 477.5,899.5C 566.585,892.526 647.252,862.693 719.5,810C 828.663,724.528 888.663,612.361 899.5,473.5 Z"/></g>
<g><path style="opacity:1" fill="#1b8d6d" d="M 37.5,489.5 C 38.5629,493.639 39.2296,497.972 39.5,502.5C 38.7784,502.082 38.2784,501.416 38,500.5C 37.5014,496.848 37.3347,493.182 37.5,489.5 Z"/></g>
<g><path style="opacity:1" fill="#1e9172" d="M 861.5,490.5 C 861.698,495.75 861.031,500.75 859.5,505.5C 859.444,500.269 860.111,495.269 861.5,490.5 Z"/></g>
<g><path style="opacity:1" fill="#fefefe" d="M -0.5,478.5 C 5.72653,555.264 28.8932,626.264 69,691.5C 153.06,816.458 270.226,885.792 420.5,899.5C 280.167,899.5 139.833,899.5 -0.5,899.5C -0.5,759.167 -0.5,618.833 -0.5,478.5 Z"/></g>
<g><path style="opacity:1" fill="#a4a5ac" d="M 472.5,501.5 C 472.5,503.167 472.5,504.833 472.5,506.5C 468.167,506.5 463.833,506.5 459.5,506.5C 463.298,505.517 467.298,505.183 471.5,505.5C 471.232,503.901 471.566,502.568 472.5,501.5 Z"/></g>
<g><path style="opacity:1" fill="#93949a" d="M 426.5,505.5 C 437.487,506.166 448.487,506.499 459.5,506.5C 455.18,507.166 450.68,507.499 446,507.5C 439.262,507.686 432.762,507.019 426.5,505.5 Z"/></g>
<g><path style="opacity:1" fill="#989ba2" d="M 493.5,505.5 C 492.74,511.804 492.407,518.137 492.5,524.5C 491.836,522.19 491.503,519.69 491.5,517C 491.349,512.888 492.016,509.054 493.5,505.5 Z"/></g>
<g><path style="opacity:1" fill="#0f7e5f" d="M 40.5,511.5 C 41.9887,516.617 42.9887,521.951 43.5,527.5C 41.2274,522.549 40.2274,517.216 40.5,511.5 Z"/></g>
<g><path style="opacity:1" fill="#158767" d="M 859.5,506.5 C 859.559,513.902 858.225,520.902 855.5,527.5C 856.312,520.277 857.645,513.277 859.5,506.5 Z"/></g>
<g><path style="opacity:1" fill="#000106" d="M 202.5,535.5 C 203.499,578.33 203.832,621.33 203.5,664.5C 214.833,664.5 226.167,664.5 237.5,664.5C 237.168,621.33 237.501,578.33 238.5,535.5C 238.5,578.833 238.5,622.167 238.5,665.5C 226.5,665.5 214.5,665.5 202.5,665.5C 202.5,622.167 202.5,578.833 202.5,535.5 Z"/></g>
<g><path style="opacity:1" fill="#00020f" d="M 694.5,665.5 C 679.5,665.5 664.5,665.5 649.5,665.5C 663.421,664.501 678.088,664.168 693.5,664.5C 693.333,621.832 693.5,579.165 694,536.5C 694.5,579.499 694.667,622.499 694.5,665.5 Z"/></g>
<g><path style="opacity:1" fill="#dee1e5" d="M 697.5,534.5 C 696.844,578.294 696.177,621.961 695.5,665.5C 695.333,622.165 695.5,578.832 696,535.5C 696.383,534.944 696.883,534.611 697.5,534.5 Z"/></g>
<g><path style="opacity:1" fill="#15af80" d="M 853.5,540.5 C 852.486,545.395 852.486,550.229 853.5,555C 851.03,555.74 849.363,557.24 848.5,559.5C 849.594,552.905 851.261,546.572 853.5,540.5 Z"/></g>
<g><path style="opacity:1" fill="#1c8d6f" d="M 47.5,549.5 C 49.4098,552.452 50.4098,555.786 50.5,559.5C 48.7234,556.495 47.7234,553.162 47.5,549.5 Z"/></g>
<g><path style="opacity:1" fill="#8a8d92" d="M 246.5,533.5 C 247.117,533.611 247.617,533.944 248,534.5C 249.439,549.134 250.273,563.8 250.5,578.5C 249.047,563.636 247.714,548.636 246.5,533.5 Z"/></g>
<g><path style="opacity:1" fill="#9ea0a7" d="M 164.5,562.5 C 165.857,575.311 166.524,588.311 166.5,601.5C 164.971,588.698 164.304,575.698 164.5,562.5 Z"/></g>
<g><path style="opacity:1" fill="#14bc88" d="M 845.5,571.5 C 845.325,575.54 844.325,579.373 842.5,583C 843.378,584.8 844.045,586.633 844.5,588.5C 842.058,588.354 841.391,589.187 842.5,591C 841.207,591.49 839.873,591.657 838.5,591.5C 838.664,594.187 838.497,596.854 838,599.5C 837.667,599.167 837.333,598.833 837,598.5C 836.994,601.264 835.828,603.264 833.5,604.5C 836.732,593.13 840.732,582.13 845.5,571.5 Z"/></g>
<g><path style="opacity:1" fill="#b6b9c3" d="M 540.5,606.5 C 553.162,607.782 565.828,607.782 578.5,606.5C 572.246,608.054 565.746,608.72 559,608.5C 554.167,608.333 549.333,608.167 544.5,608C 542.942,607.79 541.609,607.29 540.5,606.5 Z"/></g>
<g><path style="opacity:1" fill="#13b987" d="M 63.5,599.5 C 68.4367,609.707 73.1034,620.04 77.5,630.5C 75.2221,628.233 73.3887,625.567 72,622.5C 71.1072,623.711 70.2739,623.711 69.5,622.5C 70.6808,620.802 70.6808,619.135 69.5,617.5C 68.8076,618.025 68.3076,618.692 68,619.5C 67.6053,617.821 67.772,616.155 68.5,614.5C 65.9686,609.775 64.302,604.775 63.5,599.5 Z"/></g>
<g><path style="opacity:1" fill="#8a8d95" d="M 649.5,666.5 C 651.04,668.838 651.706,671.505 651.5,674.5C 649.96,672.162 649.294,669.495 649.5,666.5 Z"/></g>
<g><path style="opacity:1" fill="#a9acb2" d="M 740.5,663.5 C 741.68,675.499 742.68,687.665 743.5,700C 743.492,701.707 743.158,703.207 742.5,704.5C 742.784,702.585 742.451,700.919 741.5,699.5C 741.034,687.505 740.7,675.505 740.5,663.5 Z"/></g>
<g><path style="opacity:1" fill="#c9ced8" d="M 252.5,628.5 C 254.549,653.657 256.216,678.99 257.5,704.5C 228.833,704.5 200.167,704.5 171.5,704.5C 171.5,700.167 171.5,695.833 171.5,691.5C 172.483,695.298 172.817,699.298 172.5,703.5C 200.167,703.5 227.833,703.5 255.5,703.5C 254.539,678.498 253.539,653.498 252.5,628.5 Z"/></g>
<g><path style="opacity:1" fill="#d9dfec" d="M 741.5,699.5 C 742.451,700.919 742.784,702.585 742.5,704.5C 714.167,704.5 685.833,704.5 657.5,704.5C 657.5,703.5 657.5,702.5 657.5,701.5C 685.274,703.478 713.274,704.145 741.5,703.5C 741.5,702.167 741.5,700.833 741.5,699.5 Z"/></g>
<g><path style="opacity:1" fill="#1b866e" d="M 615.5,828.5 C 613.967,830.245 611.967,831.245 609.5,831.5C 611.033,829.755 613.033,828.755 615.5,828.5 Z"/></g>
<g><path style="opacity:1" fill="#189773" d="M 591.5,838.5 C 586.915,841.14 581.915,842.806 576.5,843.5C 581.146,841.023 586.146,839.356 591.5,838.5 Z"/></g>
<g><path style="opacity:1" fill="#236257" d="M 329.5,845.5 C 331.898,845.259 333.898,845.926 335.5,847.5C 333.102,847.741 331.102,847.074 329.5,845.5 Z"/></g>
<g><path style="opacity:1" fill="#168c6b" d="M 527.5,855.5 C 520.588,858.386 513.255,859.719 505.5,859.5C 512.633,857.754 519.966,856.42 527.5,855.5 Z"/></g>
</svg>
